<svg xmlns="http://www.w3.org/2000/svg" xml:space="preserve" width="230mm" height="40mm" viewBox="0 0 230 40"><rect width="230" height="40" rx="1.949" ry="2" style="fill:#1e1e2e;fill-opacity:1;stroke:none;stroke-width:3.54214;stroke-linecap:round;stroke-linejoin:round;stroke-dasharray:none"/><g aria-label="nvim" style="font-size:28.575px;font-family:gan;-inkscape-font-specification:gan;text-align:center;letter-spacing:.0079375px;text-anchor:middle;fill:#a6e3a1;stroke-linecap:square;stroke-linejoin:round"><path d="M44.185 10.792h4.046l-.014 3.014.474-1.172q2.665.712 3.935 1.605 1.284.879 2.651 2.888l.195.558-.014-6.865h4.019v15.655q.097 1.075-.935 2.288-1.019 1.2-4.2 1.033v-3.949q1.395-.111 1.172-1.8.014-.948-.418-2.05-.419-1.117-2.651-2.959-2.219-1.855-4.228-2.413v13.17h-4.06ZM64.438 10.513l5.079 14.274q2.553-2.065 3.306-4.535.754-2.47.572-5.385l-2.037.014.46-4.144 5.652-.028q.795 3.237.265 6.753-.53 3.502-1.702 5.846-1.172 2.33-3.517 5.134l-2.009-.767.95 2.665-4.256 1.605-6.88-20.315zM83.84 10.653l-.014 19.06h-4.2l-.014-18.418zM92.303 9.411l4.41.042v1.367h4.73q1.73.265 1.91 1.926l-.027 12.655q-.712 3.014-1.995 3.837-1.284.809-3.168.809v-4.228q1.144.098.963-5.4v-5.371h-2.372v14.064l-4.493.796.014-14.86h-1.841v14.301l-4.493.572-.014-14.078 1.52-.907h-1.939l1.158-4.116h5.637z" style="fill:#89b4fa"/></g><g style="fill:#b4befe;fill-opacity:1"><path d="M221.071 464.07c20.388-22.02 44.178-38.936 70.264-52.752 7.559-4.003 8-3.81 9.854 4.286 2.763 12.07 7.07 23.566 12.103 34.831.653 1.462 1.738 2.857 1.118 5.213-18.723-2.92-36.886-1.29-55.467 7.39 6.648 2.485 12.383 1.855 17.82 2.405 23.03 2.33 44.496 9.595 65.22 19.44 33.025 15.688 61.74 37.393 87.383 63.255 10.2 10.286 19.839 21.126 29.909 31.543 17.25 17.845 38.21 29.51 62.216 35.185 42.105 9.954 81.875 3.53 119.227-18.35 20.102-11.774 37.08-27.022 51.594-45.14.91-1.136 1.596-2.596 4.14-3.019 20.546 27.293 29.006 58.18 25.213 92.354-3.833 34.54-20.368 62.002-48.294 82.655 2.058 2.143 4 1.419 5.724 1.423 32.325.076 64.651.062 96.976.154 8.357.024 16.018 1.578 19.69 10.551 2.786 6.811-.73 15.584-7.532 18.373-3.913 1.604-8.044 2.053-12.245 2.05-34.992-.022-69.985.118-104.976-.095-30.131-.184-60.264.004-90.39-.134-131.63-.598-263.257-.055-394.885-.286-17.484-.03-34.959 1.001-52.455.158-8.79-.423-15.206-5.584-16.223-13.914-.824-6.751 4.853-13.87 12.635-15.888 3.106-.806 6.27-.818 9.435-.778 17.323.219 34.646.51 51.97.672 10.778.101 21.558.019 32.337.019l.35-1.67c-4.227-3.545-8.527-7.006-12.667-10.65-20.75-18.26-33.615-41.296-41.589-67.529-7.6-25.008-7.644-50.382-3.392-75.655 6.074-36.107 22.274-67.766 45.737-95.756 2.887-3.444 5.965-6.728 9.2-10.341z" style="fill:#b4befe;fill-opacity:1" transform="translate(1.89 .96) scale(.04183)"/><path d="M324.97 298.158c1.671-4.05 3.123-7.776 4.808-11.394 1.448-3.11.695-5.212-2.528-6.197-5.77-1.762-9.833-5.526-12.651-10.672-1.2-2.19-2.987-2.882-5.215-3.274-14.087-2.477-28.158-5.047-42.248-7.51-24.237-4.236-48.51-8.267-72.714-12.688-10.964-2.002-17.02-10.339-15.205-19.817 2.212-11.544 10.559-17.348 22.19-15.354 9.502 1.629 18.993 3.324 28.483 5.027 1.315.236 2.583.595 4.123-.47-1.792-3.62-5.432-5.215-8.172-7.612-7.934-6.94-9.993-15.95-5.27-24.031 4.05-6.934 17.454-12.424 24.958-8.88 7.182 3.391 13.537 7.834 19.902 12.313 21.83 15.361 42.718 31.885 61.226 51.23 1.521 1.59 3.191 2.204 5.373 1.789 15.982-3.04 29.097 10.642 24.264 28.004-.13.467-.108.977-.212 2.033 69.892 23.334 135.63 56.646 202.87 86.57-59.498-50.766-128.051-84.405-201.958-106.524-.495-2.21.33-2.841 1.047-3.527 30.427-29.149 66.665-46.85 107.692-55.73 20.566-4.45 41.277-5.741 62.054-4.495 26.264 1.574 51.574 7.911 75.73 18.615 38.399 17.015 68.055 44.055 90.057 79.453 14.339 23.07 23.976 48.08 28.953 74.998 3.692 19.972 5.263 39.923 3.524 60.08-2.04 23.636-6.936 46.7-16.074 68.684-12.162 29.256-29.994 54.586-54.315 74.947-32.067 26.845-69.154 39.65-111.013 36.308-29.785-2.378-55.53-14.084-76.02-36.533-18.193-19.932-36.395-39.893-57.85-56.505-21.016-16.271-43.158-30.704-67.58-41.407-1.752-.768-3.219-1.76-4.143-3.427-13.054-23.525-22.59-48.28-25.273-75.24-3.013-30.263.445-59.798 11.188-88.764m77.164 146.176c8.173 5.478 16.769 10.218 25.543 14.647 43.688 22.053 85.976 46.859 131.012 66.278 11.206 4.832 22.706 8.28 34.748 8.086 39.771-.641 71.519-28.99 81.139-67.213.978-3.885-.604-6.494-4.023-8.117-15.498-7.358-30.362-15.93-45.592-23.795-28.261-14.596-56.624-28.994-84.986-43.393-55.386-28.119-110.874-56.032-166.75-83.17-3.359-1.632-4.884-.998-6.578 2.233-5.56 10.603-9.335 21.835-10.572 33.636-4.43 42.226 10.239 76.02 46.06 100.808m223.577-157.403c-1.272-9.915-7.222-16.315-15.964-20.107-8.853-3.84-17.312-2.317-24.803 3.695-6.845 5.495-10.263 13.038-9.339 21.543 1.455 13.382 11.43 24.698 29.538 22.697 11.822-1.306 22.315-14.273 20.568-27.828zm107.99-102.346c14.696-6.61 29.047-13.072 44.18-19.887-4.57-3.4-9.041-3.282-13.09-4.275-8.071-1.98-16.309-3.27-24.173-6.106-8.873-3.2-13.02-10.615-10.604-19.199 2.138-7.594 9.442-11.562 18.305-9.5 23.315 5.421 46.625 10.872 69.864 16.61 12.55 3.1 18.548 12.627 15.104 23.145-1.754 5.356-5.443 9.071-10.564 11.342-13.999 6.205-28.016 12.368-42.01 18.582-2.118.94-4.152 2.069-7.084 3.543 8.898 3.238 17.031 6.253 25.205 9.151 4.699 1.667 9.592 2.782 13.94 5.387 11.759 7.046 11.933 22.129-.13 28.734-8.44 4.621-17.431 8.26-26.28 12.1-15.268 6.624-30.605 13.09-45.937 19.564-5.6 2.365-10.998 1.616-15.332-2.55-4.573-4.397-5.502-9.98-3.765-16.136 1.527-5.416 5.618-8.137 10.249-10.191 9.435-4.186 18.971-8.142 28.471-12.18 2.586-1.099 5.278-1.995 7.605-4.113-1.24-1.847-3.27-2.257-5.012-2.902-8.895-3.296-17.806-6.551-26.774-9.64-7.196-2.478-12.397-6.743-12.989-14.74-.586-7.92 3.55-13.227 10.82-16.739zm71.498 308.255c3.5 1.608 6.685 3.03 9.878 4.431 1.782.783 3.21 1.852 3.122 4.035-.084 2.06-1.24 3.354-3.128 4.073-1.087.414-2.127.973-3.237 1.304-7.254 2.167-12.367 6.238-13.288 14.327-.165 1.442-.884 2.865-1.546 4.197-.941 1.894-2.372 3.196-4.712 3.019-2.186-.166-3.13-1.7-3.79-3.473a26.757 26.757 0 0 1-1.105-3.824c-1.424-6.797-5.159-11.395-12.137-13.009-.802-.185-1.576-.54-2.326-.896-2.526-1.2-5.636-2.047-5.335-5.694.271-3.29 3.094-4.06 5.69-4.745 8.192-2.156 13.428-6.852 14.415-15.714.318-2.863.706-6.576 4.509-6.863 4.245-.32 5.147 3.49 6.244 6.625 1.52 4.346 2.115 9.173 6.746 12.208zM224.717 318.097c2.746 1.31 5.614 2.34 5.095 5.693-.47 3.037-3.08 4.065-5.809 4.681-7.676 1.735-12.767 6.081-14.248 14.108-.208 1.129-.654 2.233-1.12 3.291-.827 1.88-1.86 3.631-4.302 3.52-2.12-.095-3.17-1.585-3.991-3.302-.215-.45-.508-.888-.602-1.364-1.83-9.204-6.932-15.132-16.448-16.982-1.987-.386-3.381-2.058-3.554-4.346-.181-2.402 1.332-3.608 3.199-4.559.59-.301 1.189-.682 1.824-.791 8.865-1.522 13.41-7.121 15.2-15.611.51-2.422 1.734-4.966 4.81-4.966 3.092-.001 3.992 2.472 4.725 4.973 2.268 7.735 5.938 14.154 15.22 15.655zm-75.699 135.637c-1.153 2.716-2.252 5.083-5.413 4.733-2.844-.315-3.516-2.737-4.285-4.936-.603-1.724-1.07-3.495-1.623-5.238-1.56-4.923-4.433-8.276-9.777-9.599-3.686-.912-8.665-1.41-8.663-6.69.002-5.048 4.842-5.375 8.35-6.357 5.862-1.64 9.399-4.925 10.713-11.08.708-3.317.847-8.3 5.473-8.495 4.858-.207 5.637 4.696 6.483 8.246 1.715 7.203 5.964 11.208 13.185 12.394 2.688.44 5.343 1.33 5.722 4.624.411 3.579-2.57 4.776-4.976 5.246-9.398 1.835-13.845 7.783-15.19 17.152zM512.914 125.6c7.785-3.463 14.24-1.486 16.713 4.794 2.543 6.455-.31 13.215-6.61 15.666-4.738 1.843-10.53-.018-13.187-4.237-3.467-5.503-2.548-10.83 3.084-16.224zm105.663 14.405c5.77 3.818 7.98 8.937 6.383 14.111-1.517 4.913-6.077 8.097-11.463 7.78-4.415-.258-8.139-1.85-9.824-6.357-1.822-4.87-1.65-9.741 2.11-13.493 3.389-3.38 7.793-4.262 12.794-2.041zm63.039 44.858c-4.79 2.772-9.169 2.929-13.19-.624-3.336-2.947-4.88-6.617-3.786-11.133 1.183-4.887 4.31-7.7 9.2-8.591 4.452-.811 9.181 1.71 11.518 6.083 2.73 5.11 1.817 8.85-3.742 14.265z" style="fill:#b4befe;fill-opacity:1" transform="translate(1.89 .96) scale(.04183)"/><path d="M372.638 178.03c-5.416 1.978-9.95 1.17-13.303-3.14-2.976-3.828-3.618-8.223-1.078-12.564 2.516-4.3 6.569-6.035 11.41-5.391 4.946.658 7.984 3.823 9.332 8.505 1.31 4.548-.957 9.026-6.361 12.59zM245.01 372.626c.238-7.743 3.57-11.497 10.173-11.933 6.294-.415 10.888 2.825 12.14 8.562 1.072 4.922-2.475 11.01-7.375 12.66-7.013 2.358-12.264-.779-14.937-9.29zm515.413-36.128c2.83-7.935 8.285-10.432 14.385-6.926.115.838-.47 1.175-1.083 1.438-2.036.87-4.107 1.854-4.068 4.437.04 2.675 1.491 4.702 3.85 5.966 1.937 1.038 5.091 1.28 4.047 4.52-.968 3.003-3.948 3.21-6.644 3.235-6.544.06-10.254-4.3-10.487-12.67zm-323.133 57.25c8.845 6.576 17.882 9.077 28.273 4.567 5.793-2.514 9.764-.853 12.574 4.202 2.692 4.841 1.412 10.93-3.262 14.198-7.858 5.495-16.91 7.167-26.143 6.332-22.239-2.013-39.65-18.327-43.54-40.303-.839-4.745-1.005-9.628.735-14.292 2.01-5.386 6.396-8.187 11.541-7.534 5.3.673 8.376 4.18 8.849 10.33.679 8.83 3.915 16.392 10.973 22.5zm163.33 75.007c2.133-.698 3.927-1.157 5.574-1.928 4.484-2.1 8.296-.843 11.16 2.69 2.994 3.691 2.926 8.022.766 12.18-1.51 2.905-4.099 4.793-6.984 6.202-29.354 14.34-62.601-2.373-68.948-32.874-.68-3.271-.768-6.605.556-9.823 1.917-4.661 6.125-7.59 10.822-7.344 5.184.272 8.107 3.106 9.322 8.114 2.745 11.311 9.21 19.39 20.63 22.91 5.547 1.71 11.133 1.616 17.102-.127z" style="fill:#b4befe;fill-opacity:1" transform="translate(1.89 .96) scale(.04183)"/></g><ellipse cx="26.994" cy="13.122" rx=".515" ry=".533" style="fill:#f38ba8;fill-opacity:1;stroke-width:.22832"/><g aria-label="dotfiles" style="font-size:28.575px;font-family:&quot;Gang of Three&quot;;-inkscape-font-specification:&quot;Gang of Three&quot;;text-align:center;text-anchor:middle;fill:#a6e3a1;stroke-width:.2;stroke-linecap:round;stroke-linejoin:round"><path d="M109.991 10.964h12.306l2.68.014v8.484q.167 2.134-.42 4.102-.571 1.953-2.232 3.823-1.646 1.855-3.641 2.288-1.982.432-9.14.265l.029-3.963 2.65-.028-1.562-.78v-10.06h-1.34zm4.702 4.144v10.953q2.121.293 3.656-.642 1.535-.949 2.05-2.358.517-1.423.322-7.953zM130.446 10.909v1.827l1.088-1.827h9.209q1.702.474 1.604 4.8v12.57q-.334 1.535-2.609 1.605h-10.646q-2.372.098-2.748-2.065V11.76Zm0 4.116v10.743h7.785V15.025ZM144.05 10.95h12.669l-.517 4.186h-4.506v9.055q-.237 2.107 1.423 2.498l-1.019 3.935q-1.911.055-3.237-1.242-1.311-1.298-1.353-3.433v-9.976l1.8-.865-5.679-.014zM158.616 10.95h12.432l-.893 4.005h-6.446l-.014 4.632.502-1.897 5.149 1.046-.782 4.144-4.91-.977.013 7.507-4.186.879v-14.4l2.023-.934h-3.571zM177.062 10.853l-.014 19.059h-4.2l-.014-18.417zM180.187 10.909h4.144l-.014 9.976 2.372.028-.405 3.348-1.855.014v1.242l7.45-.014-.432 4.381-12.85-.028.627-4.311h.88v-1.242h-1.368l.363-3.404 1.06-.014zM193.33 11.062h13.8v3.977l-7.967.013v2.219l6.306.014-.446 3.837h-5.86v4.925l8.204-.949 1.172 4.214L194 31.14l-.446-4.214 1.646-.279V21.15h-1.73l.39-3.586 1.368-.014-.014-1.619 2.246-.823-4.13.014zM210.06 10.922l10.352-.013q1.689.418 2.177 1.883.502 1.465.502 2.567l-3.655.726q0-1.312-2.47-1.116h-2.874l8.776 8.595q.977 1.255.251 4.227-.725 1.898-3.586 2.149l-7.046-.014q-1.227-.405-1.94-1.549-.71-1.158-1.101-2.86l3.823-1.298q.153 1.591 1.283 1.535l3.726.014q.85-.195-.28-1.228l-8.162-7.98 2.01-1.591h-2.568z"/></g></svg>