<svg width="145mm" height="40mm" viewBox="0 0 145 40" xml:space="preserve" xmlns="http://www.w3.org/2000/svg"><rect style="fill:#1d55a2;fill-opacity:1;stroke:none;stroke-width:2.81245;stroke-linecap:round;stroke-linejoin:round;stroke-dasharray:none" width="145" height="40" rx="2" ry="2"/><path style="fill:#000;fill-opacity:1;stroke-width:.25" d="m17.098 14.496 11.893 6-1.861 2.44-4.03-1.174-5.477-3.218-.958-1.915Z"/><g aria-label="NeoVIM" style="font-size:28.2223px;font-family:gan;-inkscape-font-specification:gan;text-align:center;letter-spacing:.0079375px;text-anchor:middle;fill:#e6e6e6;stroke:#000;stroke-linecap:square;stroke-linejoin:round"><path d="M43.29 10.346h3.996l-.014 2.976.469-1.157q2.632.702 3.886 1.584 1.268.869 2.618 2.853l.193.551-.014-6.78h3.97v15.462q.096 1.061-.924 2.26-1.006 1.185-4.148 1.02v-3.9q1.378-.11 1.157-1.778.014-.937-.413-2.026-.413-1.102-2.618-2.921-2.191-1.833-4.176-2.384v13.009h-4.01zM60 10.415h13.628v3.927l-7.868.014v2.19l6.229.015-.441 3.79H65.76v4.864l8.103-.937 1.157 4.161-14.359 1.806-.441-4.162 1.626-.276v-5.43h-1.709l.386-3.54 1.35-.015-.013-1.598 2.219-.813-4.08.014zM79.934 10.263v1.805l1.075-1.805h9.095q1.681.469 1.585 4.74V27.42q-.331 1.515-2.577 1.584H78.597q-2.342.097-2.714-2.04v-15.86Zm0 4.065V24.94h7.69V14.33ZM96.52 10.07l5.016 14.097q2.522-2.04 3.266-4.478.744-2.44.565-5.32l-2.012.014.455-4.092 5.58-.028q.786 3.197.263 6.67-.524 3.459-1.682 5.774-1.157 2.301-3.472 5.07l-1.985-.757.937 2.632-4.203 1.585-6.793-20.064zM111.548 10.304h7.51l-.55 3.97h-1.213v10.955h1.543l-.22 3.844h-7.51l.371-3.872 1.613.014.027-9.963 1.737-.979h-3.707zM127.362 8.981l4.355.042v1.35h4.672q1.708.262 1.888 1.902l-.028 12.499q-.703 2.976-1.97 3.79-1.268.799-3.129.799v-4.176q1.13.097.951-5.333V14.55h-2.343v13.89l-4.437.786.014-14.676h-1.82v14.125l-4.436.565-.014-13.905 1.502-.896h-1.916l1.144-4.065h5.567z" style="font-family:'Gang of Three';-inkscape-font-specification:'Gang of Three'" transform="translate(.499)"/></g><g style="fill:#000"><path style="fill:#000" d="M239.014 148.89c-11.297.322-22.362 4.675-31.092 11.803-5.376 4.447-9.64 10.239-12.151 16.757a41.533 41.533 0 0 0-2.347 8.247c-10.28.723-20.294 5.271-27.395 12.776-7.605 7.99-11.855 18.871-12.41 29.83-.44 10.599 3.414 21.314 10.592 29.138 6.878 7.61 16.54 12.418 26.611 14.046 23.647 4.287 47.346 8.27 71.022 12.392 1.564.271 3.349.587 4.998.876 10.399 1.817 20.784 3.709 31.18 5.546.66.784 1.34 1.553 2.052 2.29-9.283 26.127-13.532 54.02-12.483 81.726.495 14.94 2.45 29.86 6.31 44.313 5.252 20.015 13.619 39.118 23.786 57.102 3.75 6.17 9.724 10.784 16.367 13.485 22.644 10.043 43.41 23.856 62.876 39.076 19.607 15.51 36.405 34.137 53.244 52.514 14.191 15.579 31.963 27.95 51.688 35.432 15.663 6.008 32.396 8.947 49.132 9.504 22.877.843 45.958-2.715 67.375-10.86 27.075-10.219 51.223-27.375 71.12-48.264 14.25-14.986 26.235-32.088 35.668-50.483 9.53-18.468 16.543-38.222 20.868-58.546a277.572 277.572 0 0 0 5.828-44.533c.974-22.531-1.563-45.12-6.387-67.117-6.101-27.247-16.997-53.412-32.067-76.92-14.716-23.118-33.274-43.885-55.157-60.436-17.164-13.037-36.296-23.404-56.417-31.093-25.1-9.662-51.8-15.182-78.686-16.099-23.593-.925-47.333 1.342-70.255 7.048-26.192 6.369-51.545 16.544-74.406 30.889a233.532 233.532 0 0 0-25.574 18.525c-4.565-1.707-9.406-2.68-14.265-2.924-19.712-19.5-41.785-36.438-64.587-52.145-6.43-4.341-13.063-8.487-20.255-11.454-4.7-1.794-9.763-2.561-14.783-2.44zM390.83 344.42c50.083 24.617 99.903 49.762 149.651 75.045 25.241 12.84 50.493 25.66 75.64 38.684 9.69 5.073 19.263 10.365 28.963 15.42-5.86 12.082-15.47 22.496-27.55 28.515-8.214 4.106-17.45 6.217-26.636 5.921-8.514-.385-16.577-3.53-24.303-6.894-16.772-7.333-33.205-15.416-49.472-23.802-.285-.144-1.066-.553-1.541-.798l-5.207-2.7c-.338-.182-1.063-.558-1.55-.814-23.461-12.271-46.7-24.968-70.334-36.908-9.29-4.78-18.564-9.749-26.86-16.15-8.856-6.847-16.732-15.17-22.126-25.04-5.798-10.382-8.51-22.275-8.844-34.106-.168-6.139.163-12.303 1.103-18.373a78.14 78.14 0 0 1 .431-2.234l8.635 4.234z" transform="matrix(.04183 0 0 .04183 1.89 .96)"/><path style="fill:#000" d="M297.525 383.46c-5.643-.028-11.104 1.856-16.047 4.464-28.385 14.742-54.91 33.474-76.922 56.78-4.292 4.583-8.504 9.244-12.56 14.037-17.226 20.622-31.403 43.937-40.696 69.196-6.109 16.507-10.045 33.789-11.981 51.276-2.45 21.766-1.65 44.025 3.636 65.333 2.914 11.731 6.987 23.168 11.984 34.17a170.387 170.387 0 0 0 11.678 21.335c-10.383-.128-20.766-.322-31.15-.373-7.892.138-15.86 1.906-22.724 5.898-10.27 5.804-18.134 16.028-20.38 27.683-2.05 10.408.651 21.503 6.69 30.152 5.633 8.03 14.318 13.746 23.817 16.083 6.477 1.652 13.215 1.47 19.845 1.658 12.515.168 25.026-.277 37.539-.422.345.001 1.2-.01 1.741-.013 13.183-.023 26.365.029 39.548.03 97.989.076 195.979-.157 293.968.038 29.36.047 58.72.224 88.08.254 26.738.012 53.477-.022 80.215.146 31.11.104 62.222.045 93.333.023 9.134-.102 18.465-1.996 26.324-6.819 11.14-6.902 18.232-19.678 18.538-32.741.376-10.314-3.72-20.568-10.587-28.196-5.243-5.801-12.226-9.945-19.774-11.945-6.531-1.82-13.364-1.948-20.097-1.877-14.295-.024-28.59-.06-42.885-.073 7.933-13.563 13.393-28.526 16.326-43.952 2.534-13.295 3.36-26.91 2.56-40.418-1.238-19.948-6.53-39.643-15.558-57.48-4.866-9.713-10.844-18.834-17.459-27.44l-7.341-9.843c-5.562 1.143-11.145 2.181-16.701 3.35-7.37 1.533-13.939 6.114-18.278 12.22-12.885 16.064-28.614 29.958-46.617 40.032-16.544 9.377-34.934 15.746-53.919 17.519-17.16 1.64-34.599-.29-51.122-5.128-15.408-4.641-29.708-13.01-41.124-24.372-6.177-6.176-12.03-12.666-18.026-19.017-9.398-10.078-18.99-19.992-29.23-29.222-23.125-20.996-48.986-39.1-77.132-52.72a293.104 293.104 0 0 0-15.19-6.86c.394-5.81-1.063-11.645-3.746-16.783-4.567-10.22-8.406-20.806-10.783-31.76-1.392-5.982-3.973-11.855-8.395-16.222-3.783-3.783-8.676-6.453-13.937-7.472-1.797-.352-3.628-.549-5.46-.528zM742.986 99.781c-11.017.117-21.997 4.942-29.201 13.34-10.033 11.512-12.636 28.95-6.328 42.868a39.813 39.813 0 0 0 7.057 10.706c-6.8 4.977-12.217 11.953-14.862 19.993-3.429 10.23-2.693 21.785 1.957 31.515 1.96 4.02 4.622 7.684 7.786 10.842-5.326 4.444-9.441 10.326-11.688 16.895-2.423 7.015-3.164 14.663-1.846 21.982 1.557 8.474 5.977 16.37 12.353 22.16 7.038 6.553 16.576 10.432 26.221 10.33 6.373.013 12.632-1.74 18.384-4.403 19.051-8.038 38.083-16.124 57.031-24.402 6.074-2.72 12.126-5.545 17.818-9.007 9.387-5.987 16.358-15.788 18.499-26.756 2.27-11.112-.476-23.077-7.193-32.194a42.291 42.291 0 0 0-4.01-4.736c9.357-4.594 17.088-12.547 21.077-22.21 4.328-10.152 4.766-22.025.616-32.308-3.854-9.785-11.627-17.793-20.972-22.504-5.086-2.667-10.677-4.128-16.243-5.408-22.195-5.432-44.441-10.659-66.707-15.794a45.017 45.017 0 0 0-9.749-.909zM792.309 448.69c-8.779.014-17.492 4.145-22.9 11.087-3.102 3.867-5.092 8.543-6.11 13.375-6.636 2.188-12.601 6.557-16.362 12.482-5.596 8.642-6.198 20.23-1.557 29.417 2.804 5.636 7.535 10.195 13.09 13.106 1.731.932 3.542 1.704 5.333 2.513 1.785 6.103 5.034 11.907 9.96 16.019 5.77 4.917 13.515 7.36 21.063 6.786 8.552-.55 16.735-5.07 21.77-12.004 2.627-3.537 4.47-7.593 5.873-11.752 3.187-1.255 6.354-2.667 9.085-4.77 5.586-4.088 9.631-10.21 11.169-16.962 1.98-8.311.205-17.505-5.037-24.298-3.55-4.759-8.654-8.148-14.121-10.335-.558-.241-1.226-.385-1.234-1.12-1.442-4.51-3.453-8.899-6.494-12.566-4.903-6.164-12.388-10.148-20.227-10.847a31.65 31.65 0 0 0-3.301-.132zM203.994 272.178c-8.65.143-17.127 4.35-22.448 11.177-2.555 3.228-4.42 6.976-5.599 10.915-6.136 2.318-11.909 6.052-15.832 11.39-5.099 6.78-6.85 15.837-4.953 24.075 1.972 9.221 8.575 17.343 17.288 21 .963.45 1.97.798 2.987 1.099a37.16 37.16 0 0 0 6.667 12.402c5.276 6.35 13.34 10.292 21.605 10.455 8.403.295 16.861-3.3 22.413-9.63 3.32-3.7 5.614-8.212 7.19-12.9 6.679-2.121 12.74-6.351 16.689-12.18 5.735-8.374 6.855-19.767 2.564-29.005-2.782-6.163-7.878-11.091-13.83-14.203a87.198 87.198 0 0 0-5.286-2.488c-1.92-6.606-5.912-12.667-11.54-16.683-5.157-3.726-11.568-5.608-17.915-5.424zM143.861 380.766c-8.998-.035-17.944 4.232-23.42 11.401-2.507 3.169-4.281 6.873-5.443 10.731-7.797 2.631-14.628 8.337-18.112 15.85-4.806 10.092-3.66 22.79 3.074 31.746 3.816 5.132 9.295 8.944 15.337 10.99 1.92 6.162 5.375 11.979 10.506 15.991 8.016 6.435 19.506 8.129 29.051 4.335 6.765-2.58 12.328-7.87 15.617-14.283a57.268 57.268 0 0 0 3.118-7.127c.21-.42.983-.39 1.402-.654 7.424-2.772 13.812-8.455 17-15.758 4.475-9.907 2.903-22.19-3.838-30.702-3.7-4.763-8.925-8.228-14.632-10.106-1.746-5.578-4.85-10.764-9.191-14.705-5.533-5.055-12.99-7.801-20.469-7.71zM519.355 98.613c-6.703.087-13.249 2.095-19.25 4.98-2.046 1.024-3.665 2.664-5.246 4.276-6.587 6.39-11.347 14.94-12.197 24.168-1.159 11.458 3.665 23.243 12.225 30.88 9.092 8.11 22.399 11.201 34.112 7.791 11.274-3.142 20.817-11.962 24.684-23.027 4.441-12.153 1.926-26.534-6.351-36.474-5.183-6.339-12.716-10.635-20.77-12.036a36.384 36.384 0 0 0-7.207-.558zM612.896 113.482c-9.793.031-19.375 4.487-25.974 11.674-6.879 7.3-10.428 17.578-9.56 27.568.582 7.29 2.993 14.525 7.358 20.431 5.072 6.845 12.81 11.566 21.15 13.196 8.8 1.878 18.31.718 26.194-3.705 9.369-5.126 16.169-14.617 18.083-25.116 1.943-9.975-.703-20.676-6.909-28.7-3.538-4.662-8.081-8.552-13.17-11.425-5.359-2.501-11.234-4.014-17.172-3.923z" transform="matrix(.04183 0 0 .04183 1.89 .96)"/><path style="fill:#000" d="M675.188 139.063c-10.579.162-21.133 4.924-27.831 13.192-6.555 8.037-9.518 18.904-7.94 29.153 1.224 7.862 5.247 15.182 11.001 20.645 6.477 6.306 15.368 10.213 24.455 10.18 6.983.055 13.82-2.193 19.824-5.661 2.766-1.428 4.818-3.815 6.946-6.017 5.297-5.684 9.262-12.836 10.232-20.62 1.318-9.831-2.17-19.92-8.388-27.516-6.853-8.331-17.466-13.518-28.3-13.356zM366.936 131.508c-9.945.142-19.777 4.606-26.282 12.158-7.03 7.946-10.586 19.027-8.859 29.559 1.71 10.859 8.505 20.778 17.946 26.385 7.166 4.198 15.83 5.648 23.995 4.215 3.65-.613 7.186-1.792 10.618-3.143 4.854-3.165 9.527-6.781 13-11.475 6.11-7.917 8.76-18.544 6.546-28.353-1.985-9.458-7.637-18.2-15.793-23.474-6.24-4.078-13.743-6.023-21.171-5.872zM256.01 335.357c-8.953.006-18.051 3.048-24.683 9.173-6.783 6.134-10.645 15.064-11.398 24.1-.246 2.602-.316 5.232-.285 7.836 1.738 5.661 3.748 11.349 7.224 16.206 5.293 7.713 13.696 13.337 22.978 14.819 8.962 1.476 18.453-.515 26.08-5.44 10.485-6.815 17.166-19.17 16.884-31.7-.248-11.92-6.848-23.568-17.115-29.694-5.889-3.583-12.807-5.357-19.685-5.3zM769.004 302.723c-9.128.113-18.038 4.327-24.113 11.105-4.416 4.804-7.314 10.798-9.304 16.96-.643 2.196-.594 4.502-.445 6.761.251 8.891 3.011 17.92 8.828 24.77 6.25 7.554 15.942 11.963 25.704 12.131 7.089.25 14.424-1.24 20.346-5.29 8.73-5.726 13.866-16.412 12.94-26.805-.306-3.542-1.296-7.03-2.944-10.183.371-3.677-.314-7.34-.556-11.003l-.665-7.417c-4.148-2.183-8.263-4.428-12.38-6.668-5.327-2.873-11.345-4.48-17.411-4.361z" transform="matrix(.04183 0 0 .04183 1.89 .96)"/></g><g style="fill:#fff" fill="#000"><path d="M221.071 464.07c20.388-22.02 44.178-38.936 70.264-52.752 7.559-4.003 8-3.81 9.854 4.286 2.763 12.07 7.07 23.566 12.103 34.831.653 1.462 1.738 2.857 1.118 5.213-18.723-2.92-36.886-1.29-55.467 7.39 6.648 2.485 12.383 1.855 17.82 2.405 23.03 2.33 44.496 9.595 65.22 19.44 33.025 15.688 61.74 37.393 87.383 63.255 10.2 10.286 19.839 21.126 29.909 31.543 17.25 17.845 38.21 29.51 62.216 35.185 42.105 9.954 81.875 3.53 119.227-18.35 20.102-11.774 37.08-27.022 51.594-45.14.91-1.136 1.596-2.596 4.14-3.019 20.546 27.293 29.006 58.18 25.213 92.354-3.833 34.54-20.368 62.002-48.294 82.655 2.058 2.143 4 1.419 5.724 1.423 32.325.076 64.651.062 96.976.154 8.357.024 16.018 1.578 19.69 10.551 2.786 6.811-.73 15.584-7.532 18.373-3.913 1.604-8.044 2.053-12.245 2.05-34.992-.022-69.985.118-104.976-.095-30.131-.184-60.264.004-90.39-.134-131.63-.598-263.257-.055-394.885-.286-17.484-.03-34.959 1.001-52.455.158-8.79-.423-15.206-5.584-16.223-13.914-.824-6.751 4.853-13.87 12.635-15.888 3.106-.806 6.27-.818 9.435-.778 17.323.219 34.646.51 51.97.672 10.778.101 21.558.019 32.337.019l.35-1.67c-4.227-3.545-8.527-7.006-12.667-10.65-20.75-18.26-33.615-41.296-41.589-67.529-7.6-25.008-7.644-50.382-3.392-75.655 6.074-36.107 22.274-67.766 45.737-95.756 2.887-3.444 5.965-6.728 9.2-10.341z" style="fill:#fff" transform="matrix(.04183 0 0 .04183 1.89 .96)"/><path d="M324.97 298.158c1.671-4.05 3.123-7.776 4.808-11.394 1.448-3.11.695-5.212-2.528-6.197-5.77-1.762-9.833-5.526-12.651-10.672-1.2-2.19-2.987-2.882-5.215-3.274-14.087-2.477-28.158-5.047-42.248-7.51-24.237-4.236-48.51-8.267-72.714-12.688-10.964-2.002-17.02-10.339-15.205-19.817 2.212-11.544 10.559-17.348 22.19-15.354 9.502 1.629 18.993 3.324 28.483 5.027 1.315.236 2.583.595 4.123-.47-1.792-3.62-5.432-5.215-8.172-7.612-7.934-6.94-9.993-15.95-5.27-24.031 4.05-6.934 17.454-12.424 24.958-8.88 7.182 3.391 13.537 7.834 19.902 12.313 21.83 15.361 42.718 31.885 61.226 51.23 1.521 1.59 3.191 2.204 5.373 1.789 15.982-3.04 29.097 10.642 24.264 28.004-.13.467-.108.977-.212 2.033 69.892 23.334 135.63 56.646 202.87 86.57-59.498-50.766-128.051-84.405-201.958-106.524-.495-2.21.33-2.841 1.047-3.527 30.427-29.149 66.665-46.85 107.692-55.73 20.566-4.45 41.277-5.741 62.054-4.495 26.264 1.574 51.574 7.911 75.73 18.615 38.399 17.015 68.055 44.055 90.057 79.453 14.339 23.07 23.976 48.08 28.953 74.998 3.692 19.972 5.263 39.923 3.524 60.08-2.04 23.636-6.936 46.7-16.074 68.684-12.162 29.256-29.994 54.586-54.315 74.947-32.067 26.845-69.154 39.65-111.013 36.308-29.785-2.378-55.53-14.084-76.02-36.533-18.193-19.932-36.395-39.893-57.85-56.505-21.016-16.271-43.158-30.704-67.58-41.407-1.752-.768-3.219-1.76-4.143-3.427-13.054-23.525-22.59-48.28-25.273-75.24-3.013-30.263.445-59.798 11.188-88.764m77.164 146.176c8.173 5.478 16.769 10.218 25.543 14.647 43.688 22.053 85.976 46.859 131.012 66.278 11.206 4.832 22.706 8.28 34.748 8.086 39.771-.641 71.519-28.99 81.139-67.213.978-3.885-.604-6.494-4.023-8.117-15.498-7.358-30.362-15.93-45.592-23.795-28.261-14.596-56.624-28.994-84.986-43.393-55.386-28.119-110.874-56.032-166.75-83.17-3.359-1.632-4.884-.998-6.578 2.233-5.56 10.603-9.335 21.835-10.572 33.636-4.43 42.226 10.239 76.02 46.06 100.808m223.577-157.403c-1.272-9.915-7.222-16.315-15.964-20.107-8.853-3.84-17.312-2.317-24.803 3.695-6.845 5.495-10.263 13.038-9.339 21.543 1.455 13.382 11.43 24.698 29.538 22.697 11.822-1.306 22.315-14.273 20.568-27.828zM733.703 184.585c14.696-6.61 29.047-13.072 44.18-19.887-4.57-3.4-9.041-3.282-13.09-4.275-8.071-1.98-16.309-3.27-24.173-6.106-8.873-3.2-13.02-10.615-10.604-19.199 2.138-7.594 9.442-11.562 18.305-9.5 23.315 5.421 46.625 10.872 69.864 16.61 12.55 3.1 18.548 12.627 15.104 23.145-1.754 5.356-5.443 9.071-10.564 11.342-13.999 6.205-28.016 12.368-42.01 18.582-2.118.94-4.152 2.069-7.084 3.543 8.898 3.238 17.031 6.253 25.205 9.151 4.699 1.667 9.592 2.782 13.94 5.387 11.759 7.046 11.933 22.129-.13 28.734-8.44 4.621-17.431 8.26-26.28 12.1-15.268 6.624-30.605 13.09-45.937 19.564-5.6 2.365-10.998 1.616-15.332-2.55-4.573-4.397-5.502-9.98-3.765-16.136 1.527-5.416 5.618-8.137 10.249-10.191 9.435-4.186 18.971-8.142 28.471-12.18 2.586-1.099 5.278-1.995 7.605-4.113-1.24-1.847-3.27-2.257-5.012-2.902-8.895-3.296-17.806-6.551-26.774-9.64-7.196-2.478-12.397-6.743-12.989-14.74-.586-7.92 3.55-13.227 10.82-16.739zM805.201 492.84c3.5 1.608 6.685 3.03 9.878 4.431 1.782.783 3.21 1.852 3.122 4.035-.084 2.06-1.24 3.354-3.128 4.073-1.087.414-2.127.973-3.237 1.304-7.254 2.167-12.367 6.238-13.288 14.327-.165 1.442-.884 2.865-1.546 4.197-.941 1.894-2.372 3.196-4.712 3.019-2.186-.166-3.13-1.7-3.79-3.473a26.757 26.757 0 0 1-1.105-3.824c-1.424-6.797-5.159-11.395-12.137-13.009-.802-.185-1.576-.54-2.326-.896-2.526-1.2-5.636-2.047-5.335-5.694.271-3.29 3.094-4.06 5.69-4.745 8.192-2.156 13.428-6.852 14.415-15.714.318-2.863.706-6.576 4.509-6.863 4.245-.32 5.147 3.49 6.244 6.625 1.52 4.346 2.115 9.173 6.746 12.208zM224.717 318.097c2.746 1.31 5.614 2.34 5.095 5.693-.47 3.037-3.08 4.065-5.809 4.681-7.676 1.735-12.767 6.081-14.248 14.108-.208 1.129-.654 2.233-1.12 3.291-.827 1.88-1.86 3.631-4.302 3.52-2.12-.095-3.17-1.585-3.991-3.302-.215-.45-.508-.888-.602-1.364-1.83-9.204-6.932-15.132-16.448-16.982-1.987-.386-3.381-2.058-3.554-4.346-.181-2.402 1.332-3.608 3.199-4.559.59-.301 1.189-.682 1.824-.791 8.865-1.522 13.41-7.121 15.2-15.611.51-2.422 1.734-4.966 4.81-4.966 3.092-.001 3.992 2.472 4.725 4.973 2.268 7.735 5.938 14.154 15.22 15.655zM149.018 453.734c-1.153 2.716-2.252 5.083-5.413 4.733-2.844-.315-3.516-2.737-4.285-4.936-.603-1.724-1.07-3.495-1.623-5.238-1.56-4.923-4.433-8.276-9.777-9.599-3.686-.912-8.665-1.41-8.663-6.69.002-5.048 4.842-5.375 8.35-6.357 5.862-1.64 9.399-4.925 10.713-11.08.708-3.317.847-8.3 5.473-8.495 4.858-.207 5.637 4.696 6.483 8.246 1.715 7.203 5.964 11.208 13.185 12.394 2.688.44 5.343 1.33 5.722 4.624.411 3.579-2.57 4.776-4.976 5.246-9.398 1.835-13.845 7.783-15.19 17.152zM512.914 125.6c7.785-3.463 14.24-1.486 16.713 4.794 2.543 6.455-.31 13.215-6.61 15.666-4.738 1.843-10.53-.018-13.187-4.237-3.467-5.503-2.548-10.83 3.084-16.224zM618.577 140.005c5.77 3.818 7.98 8.937 6.383 14.111-1.517 4.913-6.077 8.097-11.463 7.78-4.415-.258-8.139-1.85-9.824-6.357-1.822-4.87-1.65-9.741 2.11-13.493 3.389-3.38 7.793-4.262 12.794-2.041zM681.616 184.863c-4.79 2.772-9.169 2.929-13.19-.624-3.336-2.947-4.88-6.617-3.786-11.133 1.183-4.887 4.31-7.7 9.2-8.591 4.452-.811 9.181 1.71 11.518 6.083 2.73 5.11 1.817 8.85-3.742 14.265z" style="fill:#fff" transform="matrix(.04183 0 0 .04183 1.89 .96)"/><path d="M372.638 178.03c-5.416 1.978-9.95 1.17-13.303-3.14-2.976-3.828-3.618-8.223-1.078-12.564 2.516-4.3 6.569-6.035 11.41-5.391 4.946.658 7.984 3.823 9.332 8.505 1.31 4.548-.957 9.026-6.361 12.59zM245.01 372.626c.238-7.743 3.57-11.497 10.173-11.933 6.294-.415 10.888 2.825 12.14 8.562 1.072 4.922-2.475 11.01-7.375 12.66-7.013 2.358-12.264-.779-14.937-9.29zM760.423 336.498c2.83-7.935 8.285-10.432 14.385-6.926.115.838-.47 1.175-1.083 1.438-2.036.87-4.107 1.854-4.068 4.437.04 2.675 1.491 4.702 3.85 5.966 1.937 1.038 5.091 1.28 4.047 4.52-.968 3.003-3.948 3.21-6.644 3.235-6.544.06-10.254-4.3-10.487-12.67zM437.29 393.748c8.845 6.576 17.882 9.077 28.273 4.567 5.793-2.514 9.764-.853 12.574 4.202 2.692 4.841 1.412 10.93-3.262 14.198-7.858 5.495-16.91 7.167-26.143 6.332-22.239-2.013-39.65-18.327-43.54-40.303-.839-4.745-1.005-9.628.735-14.292 2.01-5.386 6.396-8.187 11.541-7.534 5.3.673 8.376 4.18 8.849 10.33.679 8.83 3.915 16.392 10.973 22.5zM600.62 468.755c2.133-.698 3.927-1.157 5.574-1.928 4.484-2.1 8.296-.843 11.16 2.69 2.994 3.691 2.926 8.022.766 12.18-1.51 2.905-4.099 4.793-6.984 6.202-29.354 14.34-62.601-2.373-68.948-32.874-.68-3.271-.768-6.605.556-9.823 1.917-4.661 6.125-7.59 10.822-7.344 5.184.272 8.107 3.106 9.322 8.114 2.745 11.311 9.21 19.39 20.63 22.91 5.547 1.71 11.133 1.616 17.102-.127z" style="fill:#fff" transform="matrix(.04183 0 0 .04183 1.89 .96)"/></g><ellipse style="fill:maroon;fill-opacity:1;stroke-width:.22832" cx="26.994" cy="13.122" rx=".515" ry=".533"/></svg>